Motion_pu02
version=1
nRows=15
nColumns=43
inDegrees=yes
endheader
time	pelvis_tilt	pelvis_list	pelvis_rotation	pelvis_tx	pelvis_ty	pelvis_tz	hip_flexion_r	hip_adduction_r	hip_rotation_r	knee_angle_r	ankle_angle_r	subtalar_angle_r	mtp_angle_r	hip_flexion_l	hip_adduction_l	hip_rotation_l	knee_angle_l	ankle_angle_l	subtalar_angle_l	mtp_angle_l	lumbar_extension	lumbar_bending	lumbar_rotation	neck_flexion	neck_lateral_bending	neck_rotation	arm_flex_r	arm_add_r	arm_rot_r	elbow_flex_r	pro_sup_r	wrist_flex_r	wrist_dev_r	hand_finger_flex_r	arm_flex_l	arm_add_l	arm_rot_l	elbow_flex_l	pro_sup_l	wrist_flex_l	wrist_dev_l	hand_finger_flex_l
      3.14750000	     -0.50828145	      0.22857030	   -100.51192714	      0.01388071	      0.95496448	      0.57263571	      6.52612316	     -4.94736494	     -2.32354143	    -15.06840474	      5.12088693	     17.02886541	     14.67303359	      1.92347526	     -1.35167194	    -16.47790074	    -13.53271701	      5.84964482	      6.62899514	     14.43238444	     -7.13081747	     -3.37238717	      3.71229536	     26.63020660	      0.27211425	      6.51320729	     99.31200674	    -37.56639439	     23.52341480	     89.66015548	    124.30751476	      3.93161645	      5.58947639	    -31.10550860	    111.08144714	    -47.94300651	     41.95488012	     91.53847035	    123.71793377	    -11.19548165	      7.47627902	     16.95752996
      3.15000000	     -0.52484261	      0.24365110	   -100.54512647	      0.01372584	      0.95500471	      0.57347116	      6.51648298	     -4.94010178	     -2.34834532	    -15.12018274	      5.12628310	     17.11071055	     14.67140286	      1.84745873	     -1.36141736	    -16.54778738	    -13.46940648	      5.83793498	      6.63857444	     14.43856546	     -7.09444576	     -3.31871623	      3.76412409	     26.69706002	      0.22385711	      6.55394220	    100.01582564	    -37.41927168	     23.98244979	     89.19194209	    124.44844614	      4.03575581	      5.60158269	    -31.05345004	    111.92835845	    -47.72712092	     42.61768608	     90.90397303	    123.56935468	    -11.16962612	      7.54967598	     16.87401546
      3.15250000	     -0.51483985	      0.32805171	   -100.55848194	      0.01352243	      0.95513180	      0.57441765	      6.50493187	     -4.93319630	     -2.38190311	    -15.02673104	      5.12315808	     17.12778426	     14.66929033	      1.81905952	     -1.35299674	    -16.59207191	    -13.34917231	      5.81962478	      6.64473844	     14.43645092	     -6.95722967	     -3.27614654	      3.77279996	     26.79508108	      0.21450710	      6.56616371	    100.40163565	    -37.11024088	     24.01340166	     88.83875956	    124.49136773	      4.06206350	      5.65995871	    -31.04067681	    112.32001510	    -47.45754630	     42.66582890	     90.35396259	    123.55085946	    -11.15791100	      7.64483818	     16.84627222
      3.15500000	     -0.54103623	      0.12247519	   -100.65121718	      0.01306595	      0.95526044	      0.57476759	      6.38560625	     -4.93731022	     -2.30002931	    -15.29121942	      5.37430198	     17.37055598	     14.70428010	      1.61195887	     -1.37770964	    -16.73348229	    -13.47932191	      6.01779428	      6.69801583	     14.49268249	     -7.29784308	     -3.30665766	      3.77306675	     27.27575556	      0.22574793	      6.64331734	    101.41111709	    -36.89029383	     24.67027590	     88.20559829	    124.83854327	      3.95041004	      5.58910742	    -31.06086802	    114.07403929	    -47.49919952	     44.37658937	     89.66231167	    123.09109044	    -11.34872324	      7.78322771	     16.57045429
      3.15750000	     -0.52142983	      0.22096180	   -100.64197663	      0.01296307	      0.95535977	      0.57587043	      6.36776644	     -4.94846421	     -2.35958530	    -15.17260949	      5.31910337	     17.36262742	     14.69283981	      1.57596428	     -1.35410004	    -16.78968838	    -13.32458101	      5.92280526	      6.72978224	     14.48064330	     -7.11136635	     -3.25907858	      3.75775344	     27.29166685	      0.22546148	      6.67460584	    101.78153851	    -36.59836054	     24.77569095	     87.82622710	    124.86985140	      4.01894131	      5.63425790	    -31.03288319	    114.39839949	    -47.19840506	     44.39990695	     89.06109474	    123.06579737	    -11.33215200	      7.90179908	     16.55222820
      3.16000000	     -0.52500585	      0.24169342	   -100.63029187	      0.01310807	      0.95529380	      0.57675963	      6.37351331	     -4.97884445	     -2.46633437	    -15.25623765	      5.25983676	     17.41299835	     14.68133408	      1.51513097	     -1.33988510	    -16.89647608	    -13.25902002	      5.79230771	      6.82632022	     14.47925721	     -7.06478596	     -3.18861273	      3.82213162	     27.17466848	      0.16622147	      6.77312643	    102.67263881	    -36.57903616	     25.54743505	     87.24490936	    125.00444368	      4.20814575	      5.53165012	    -30.96838812	    115.30892960	    -46.92892382	     45.24495983	     88.38261209	    122.93349818	    -11.23124451	      8.01019493	     16.51995676
      3.16250000	     -0.54036392	      0.19409788	   -100.66962414	      0.01286701	      0.95534914	      0.57741320	      6.31995427	     -4.97646076	     -2.46944481	    -15.34454868	      5.36775671	     17.54965569	     14.69324942	      1.41636493	     -1.35693574	    -17.01333941	    -13.27893615	      5.87277998	      6.90371936	     14.51739116	     -7.15449046	     -3.16730274	      3.82537573	     27.42632146	      0.15885733	      6.82461004	    103.42860448	    -36.35304880	     26.01130549	     86.66063888	    125.12319167	      4.15485334	      5.45273315	    -31.00431698	    116.35740867	    -46.75343962	     46.10543044	     87.71853076	    122.71668164	    -11.26848487	      8.15057479	     16.44393833
      3.16500000	     -0.53054891	      0.25943885	   -100.65840096	      0.01262738	      0.95545578	      0.57847933	      6.27798136	     -4.97184562	     -2.50033847	    -15.26649639	      5.36259354	     17.57723830	     14.68910940	      1.37096183	     -1.35070284	    -17.07769094	    -13.17005182	      5.84458076	      6.93326359	     14.52060414	     -7.01086317	     -3.14868221	      3.82097684	     27.57327985	      0.15469520	      6.85318893	    103.80878577	    -36.03720527	     26.07341291	     86.13607564	    125.15381994	      4.15965006	      5.51778108	    -31.00968827	    116.75291198	    -46.42696242	     46.26798957	     87.16156365	    122.66267789	    -11.27131406	      8.25998394	     16.42256648
      3.16750000	     -0.53540821	      0.24790079	   -100.69267165	      0.01261239	      0.95540835	      0.57922253	      6.27740223	     -4.99843055	     -2.54027804	    -15.36482971	      5.39564991	     17.68334293	     14.68964577	      1.29332826	     -1.34922212	    -17.18060261	    -13.16439152	      5.82410626	      7.02504827	     14.54733922	     -7.05195531	     -3.09276185	      3.84998290	     27.64325169	      0.16059742	      6.92781018	    104.67239347	    -35.92438899	     26.74831439	     85.60077655	    125.22878982	      4.17390672	      5.40425218	    -31.03922889	    117.78245309	    -46.27385839	     47.17030392	     86.44502721	    122.51150336	    -11.21377332	      8.36070546	     16.40705454
      3.17000000	     -0.51605399	      0.04478120	   -100.76288621	      0.01200764	      0.95570162	      0.57978490	      6.04672740	     -5.03481654	     -2.50374129	    -15.41344598	      5.64405695	     17.88505572	     14.69655169	      1.01852464	     -1.32221260	    -17.34401247	    -13.15674755	      5.97840026	      7.18328546	     14.65228890	     -7.35570653	     -3.19622786	      3.74765536	     28.19674490	      0.29873934	      7.04905505	    105.29539149	    -35.49812736	     26.96636860	     84.96361742	    125.16205933	      3.68404640	      5.33550847	    -31.29089135	    119.21361031	    -46.27670733	     48.51184490	     85.81550733	    121.87436982	    -11.67066396	      8.58012508	     16.28594378
      3.17250000	     -0.50416771	      0.14868228	   -100.72064952	      0.01196486	      0.95573560	      0.58086015	      6.03279994	     -5.03961751	     -2.54844598	    -15.31394040	      5.56471732	     17.88868830	     14.67980964	      0.98956081	     -1.30275795	    -17.39656505	    -12.98628427	      5.86501462	      7.21666209	     14.64399921	     -7.16445414	     -3.15318550	      3.74346941	     28.17683011	      0.30178724	      7.08083359	    105.71394629	    -35.25204548	     27.13857608	     84.44729438	    125.17260278	      3.79744839	      5.40123082	    -31.25379187	    119.52851411	    -45.91478340	     48.61919255	     85.23487658	    121.83768900	    -11.64169465	      8.68271065	     16.29628251
      3.17500000	     -0.50520112	      0.20642068	   -100.73528356	      0.01203207	      0.95564818	      0.58174309	      6.06210685	     -5.05754510	     -2.59781010	    -15.34962760	      5.52570543	     17.94103484	     14.66671342	      0.94377334	     -1.28999421	    -17.43516197	    -12.88969420	      5.78001954	      7.25872434	     14.65829234	     -7.08757732	     -3.07865773	      3.79811763	     28.11062893	      0.30723859	      7.12891401	    106.46902522	    -35.16972502	     27.74854871	     83.96297130	    125.18459501	      3.95935625	      5.34833361	    -31.21604645	    120.27648006	    -45.68105126	     49.25600444	     84.54522072	    121.75546911	    -11.54159222	      8.74832964	     16.34249733
      3.17750000	     -0.50442983	      0.22787883	   -100.75814080	      0.01187329	      0.95562640	      0.58253660	      6.05323939	     -5.06231177	     -2.57388133	    -15.38501008	      5.58403034	     18.02659210	     14.66637116	      0.88192947	     -1.28009609	    -17.47439068	    -12.83269816	      5.79938508	      7.26443511	     14.69303449	     -7.06773295	     -3.05199062	      3.79797185	     28.29228339	      0.34273728	      7.15768948	    107.10797041	    -34.93315850	     28.14477218	     83.41571492	    125.15707678	      3.97663733	      5.33878188	    -31.24021571	    121.10748422	    -45.45941713	     49.95890590	     83.87605072	    121.64503662	    -11.50865529	      8.80476107	     16.37108729
      3.18000000	     -0.49166438	      0.33129984	   -100.76234487	      0.01174041	      0.95567219	      0.58337318	      6.04107220	     -5.05748217	     -2.59803880	    -15.27070576	      5.58303469	     18.03551770	     14.66233615	      0.86423408	     -1.26434171	    -17.50571301	    -12.69749711	      5.77745778	      7.26967236	     14.69549065	     -6.93990706	     -3.02991591	      3.79367722	     28.39227825	      0.35341340	      7.17024026	    107.45390721	    -34.62122199	     28.13149003	     82.98975375	    125.15175467	      3.98817190	      5.41368033	    -31.24275172	    121.46585820	    -45.18682766	     49.99869691	     83.33210417	    121.63222489	    -11.50030938	      8.89411497	     16.36794259
      3.18250000	     -0.47509813	      0.33761809	   -100.75477775	      0.01172020	      0.95558719	      0.58409629	      6.06271786	     -5.08998877	     -2.58109088	    -15.37890068	      5.61994695	     18.09115076	     14.66026528	      0.81530995	     -1.23644882	    -17.51906894	    -12.65168865	      5.73953775	      7.29502833	     14.72280231	     -6.93487354	     -2.99846829	      3.79263456	     28.41998129	      0.39076963	      7.24276183	    108.26630256	    -34.48603420	     28.83082341	     82.38605878	    125.09870348	      4.08235948	      5.34293144	    -31.25262398	    122.49166120	    -44.98899181	     51.05581560	     82.63427540	    121.54830282	    -11.37129767	      8.91310002	     16.40442127
